<!DOCTYPE svg PUBLIC "-//W3C//DTD SVG 1.1//EN" "http://www.w3.org/Graphics/SVG/1.1/DTD/svg11.dtd">
<!-- Uploaded to: SVG Repo, www.svgrepo.com, Transformed by: SVG Repo Mixer Tools -->
<svg fill="#fd5858" height="177px" width="177px" version="1.1" xmlns="http://www.w3.org/2000/svg" viewBox="-15.36 -15.36 542.72 542.72" xmlns:xlink="http://www.w3.org/1999/xlink" enable-background="new 0 0 512 512" stroke="#fd5858" stroke-width="0.00512">
<g id="SVGRepo_bgCarrier" stroke-width="0"/>
<g id="SVGRepo_tracerCarrier" stroke-linecap="round" stroke-linejoin="round" stroke="#CCCCCC" stroke-width="1.024"/>
<g id="SVGRepo_iconCarrier"> <g> <g> <path d="M480.6,172h-257L474,132.7c16-3.2,18.5-17.5,16.8-24.4l-17.3-81.1c-2.3-10.6-12.4-17.6-23.1-15.9L28.3,77.5 c-8.4,1.4-19.4,9.9-16.8,24.4c0,0,19.3,89.3,19.3,90.4v288.2c0,11.3,9.1,20.4,20.4,20.4h429.4c11.3,0,20.4-9.1,20.4-20.4V192.4 C501,181.1,491.9,172,480.6,172z M55.9,114.5l381.7-59.9l8.8,41.1L64.6,155.6L55.9,114.5z M460.2,460.2H71.6V212.8h388.6V460.2z"/> <path d="m205.5,435.4l137.8-87.7c4.9-2.7 11.9-13.4 0-22.5l-137.8-87.7c-7.4-5-22.5-2.5-23.6,11.3v175.4c0.9,16.1 18.1,15.2 23.6,11.2zm6.4-160.4l96.6,61.5-96.6,61.5v-123z"/> </g> </g> </g>
</svg>